<?xml version="1.0" encoding="UTF-8" standalone="no"?>
<svg
   xmlns:dc="http://purl.org/dc/elements/1.1/"
   xmlns:cc="http://creativecommons.org/ns#"
   xmlns:rdf="http://www.w3.org/1999/02/22-rdf-syntax-ns#"
   xmlns:svg="http://www.w3.org/2000/svg"
   xmlns="http://www.w3.org/2000/svg"
   xmlns:sodipodi="http://sodipodi.sourceforge.net/DTD/sodipodi-0.dtd"
   xmlns:inkscape="http://www.inkscape.org/namespaces/inkscape"
   inkscape:version="1.0 (4035a4fb49, 2020-05-01)"
   sodipodi:docname="sfztools.svg"
   id="svg3981"
   version="1.1"
   height="260"
   width="260">
  <metadata
     id="metadata3987">
    <rdf:RDF>
      <cc:Work
         rdf:about="">
        <dc:format>image/svg+xml</dc:format>
        <dc:type
           rdf:resource="http://purl.org/dc/dcmitype/StillImage" />
      </cc:Work>
    </rdf:RDF>
  </metadata>
  <defs
     id="defs3985" />
  <sodipodi:namedview
     inkscape:current-layer="layer1"
     inkscape:window-maximized="0"
     inkscape:window-y="44"
     inkscape:window-x="86"
     inkscape:cy="212.64307"
     inkscape:cx="-1.9657095"
     inkscape:zoom="1.6192308"
     showgrid="false"
     id="namedview3983"
     inkscape:window-height="964"
     inkscape:window-width="1844"
     inkscape:pageshadow="2"
     inkscape:pageopacity="0"
     guidetolerance="10"
     gridtolerance="10"
     objecttolerance="10"
     borderopacity="1"
     bordercolor="#ffffff"
     pagecolor="#ffffff" />
  <g
     style="display:inline"
     inkscape:label="Layer 1"
     id="layer1"
     inkscape:groupmode="layer">
    <path
       sodipodi:nodetypes="cccccccccccccccccccccccccccc"
       id="path2729"
       d="m 150.77715,36.151783 c -3.59536,1.154053 -6.87268,2.253681 -10.41668,6.006981 -4.58628,6.44222 -6.31465,13.168402 -12.0648,21.010566 -3.92877,4.294976 -7.30529,6.241931 -8.20388,12.721151 0.0657,10.70872 10.49192,9.470539 14.75592,14.986339 3.02845,4.738684 0.29325,11.0568 -5.12875,11.4908 -5.307,0.425 -11.3105,-3.806575 -15.92352,-6.120086 -3.661,6.710996 -12.03611,19.995696 -13.3803,27.357006 -0.979115,5.91548 7.88571,8.46934 10.50414,5.34353 3.35038,-4.81963 6.86994,-13.09111 9.58559,-18.31394 l 6.53143,3.07299 c -4.13446,8.13099 -8.5603,16.67388 -12.9063,25.57788 -8.752,17.932 -16.2076,36.463 -25.1292,54.294 -3.5925,7.181 -6.4764,14.757 -9.9962,22 -1.2048,2.48 -2.8792,6.133 -0.973,8.718 2.6895,3.647 6.723492,3.06437 9.165492,-0.15463 5.7233,-7.545 10.864108,-18.45637 15.327908,-26.85737 15.299,-28.787 28.875,-58.635 44.955,-87 2.681,-4.73 5.453,-9.542 7.778,-14.4548 1.635,-3.4533 5.54154,-8.113338 6.834,-9.7129 3.36854,-4.360994 6.71284,-2.07275 8.02528,-2.910263 5.8354,-3.543076 -10.10629,-11.439599 -18.54475,-19.782229 C 148.63321,60.873511 146.969,58.5188 148.439,55.5795 c 1.127,-2.2531 2.11,-4.7956 4.119,-6.4306 3.485,-2.8365 7.673,-1.5687 11.442,-0.0941 6.229,2.4371 18.92798,9.281527 19.54532,6.045375 C 188.29751,50.779004 175.139,40.1794 166.91,37.5177 c -5.169,-1.672 -11.46958,-2.308366 -16.13285,-1.365917 z"
       style="fill:#ffffff" />
    <path
       id="path2983"
       d="m 47,80.5293 c -4.8614,1.1141 -10.1394,3.6739 -13.9992,6.811 -2.3676,1.9242 -4.5905,4.1711 -6.3627,6.6597 -11.049,15.516 3.2594,31.209 15.3619,40.29 6.2652,4.701 17.7449,12.643 12.142,21.691 -4.2328,6.834 -16.4766,8.335 -21.23,1.081 -2.3342,-3.563 -0.3773,-9.039 -1.3063,-13.061 -1.7927,-7.763 -11.8146,-11.752 -18.5509,-7.259 -10.5603,7.045 -5.32488,22.08 2.9846,28.32 11.3283,8.506 28.8486,8.376 41.9606,5.409 4.7833,-1.082 10.0956,-3.22 13.9097,-6.319 C 80.6292,157.067 84.697,142.181 78.7716,132 74.6942,124.994 66.99,120.198 61,114.954 55.6659,110.284 45.2393,104.701 49.1435,96.0039 c 2.2037,-4.9091 9.3171,-9.8491 14.3465,-5.4005 5.3504,4.7326 3.0311,14.1466 8.7345,18.6936 5.1529,4.108 14.572,2.616 17.7477,-3.341 C 91.6203,102.865 91.4736,97.3164 90.5664,94 86.8196,80.3032 69.1761,80 58,80 54.367,80 50.5674,79.7118 47,80.5293 Z"
       style="fill:#ffffff" />
    <path
       id="path3011"
       d="m 220,105 c -16.749,12.612 -32.789,26.321 -49,39.616 -7.708,6.321 -15.905,12.863 -16,23.384 2.59,0.585 5.316,1.601 8,1.181 5.924,-0.925 10.744,-5.254 17,-5.048 14.468,0.478 24.858,12.267 40,5.042 8.756,-4.177 15.227,-12.486 16.546,-22.175 0.614,-4.519 -0.415,-10.429 -5.565,-11.677 -11.969,-2.902 -5.145,11.977 -12.054,14.121 -2.692,0.835 -6.328,-0.988 -8.927,-1.665 -6.237,-1.627 -11.519,-2.778 -18,-2.779 15.334,-11.673 29.818,-24.872 44,-37.914 4.638,-4.266 12.244,-8.8765 14.382,-15.086 0.977,-2.8365 -0.019,-6.1262 -0.382,-9 -9.048,0.006 -17.011,4.3136 -26,3.9599 -10.124,-0.3984 -24.365,-8.5201 -33.996,-2.3565 -6.381,4.0835 -11.169,13.4782 -13.794,20.3966 -1.012,2.666 -1.991,7.156 1.108,8.917 5.534,3.145 13.013,-7.914 17.682,-9.813 3.718,-1.512 7.264,0.064 11,0.596 4.587,0.653 9.377,0.3 14,0.3 z"
       style="fill:#ffffff" />
    <path
       style="display:inline;fill:#000000;fill-opacity:1;stroke-width:2;stroke-miterlimit:4;stroke-dasharray:none"
       d="m 130.44495,69.763388 c -9.114,4.7261 -1.293,18.012599 7.808,12.778599 8.339,-4.796399 -0.092,-16.780399 -7.808,-12.778599 z"
       id="path2921-7" />
    <path
       sodipodi:nodetypes="sssss"
       d="m 131.19095,104.97882 c -1.44528,0.65432 -18.36341,-9.15295 -19.38132,-10.041854 -1.10248,-0.962751 4.99998,-12.522954 5.8262,-13.361284 0.98867,-1.003159 19.43975,9.188894 20.22343,10.369367 0.67573,1.017871 -5.46083,12.487111 -6.66831,13.033771 z"
       style="fill:#ffffff;fill-opacity:1;stroke:#000000;stroke-width:2;stroke-miterlimit:4;stroke-dasharray:none;stroke-opacity:1"
       id="path4648" />
    <path
       sodipodi:nodetypes="sssss"
       d="m 91.472259,208.77942 c 0.339681,1.50095 -4.646605,9.95838 -5.631185,11.39105 -0.810924,1.17998 -3.540511,0.0407 -3.582876,-1.60872 -0.04547,-1.77042 4.060557,-10.0607 4.761783,-11.42529 1.298673,-2.52724 4.028334,-0.23034 4.452278,1.64296 z"
       style="fill:#000000;fill-opacity:1;stroke:none"
       id="path4651" />
  </g>
</svg>
